# xmcd
# 
# Track frame offsets:
#     150
#     36897
#     86570
#     140907
#     182700
#     230522
#     300245
# 
# Disc length: 4257
# 
# Revision: 1
# Processed by: cddbd v1.5.2PL0 Copyright (c) Steve Scherf et al.
# Submitted via: BonkEnc v1.0.8
# 
DISCID=56109f07
DTITLE=Manhattan Jazz Quintet - Live At Pit Inn
DYEAR=1986
DGENRE=Jazz
TTITLE0=SO THIS
TTITLE1=ANGEL EYES
TTITLE2=ROUND MIDNIGHT
TTITLE3=MISTICIZED
TTITLE4=S.U. BLUES
TTITLE5=AUTUM LEAVES
TTITLE6=ROSARIO
EXTD=YEAR: 1986
EXTT0=
EXTT1=
EXTT2=
EXTT3=
EXTT4=
EXTT5=
EXTT6=
PLAYORDER=
